<?xml version="1.0" encoding="utf-8"?>
<!-- Generator: Adobe Illustrator 16.0.0, SVG Export Plug-In . SVG Version: 6.00 Build 0)  -->
<!DOCTYPE svg PUBLIC "-//W3C//DTD SVG 1.1//EN" "http://www.w3.org/Graphics/SVG/1.1/DTD/svg11.dtd">
<svg version="1.1" id="Layer_1" xmlns="http://www.w3.org/2000/svg" xmlns:xlink="http://www.w3.org/1999/xlink" x="0px" y="0px"
	 width="1477px" height="500px" viewBox="0 0 1477 500" enable-background="new 0 0 1477 500" xml:space="preserve">
<g>
	<defs>
		<rect id="SVGID_1_" x="-462" y="-851" width="2400" height="1800"/>
	</defs>
	<clipPath id="SVGID_2_">
		<use xlink:href="#SVGID_1_"  overflow="visible"/>
	</clipPath>
	<g clip-path="url(#SVGID_2_)">
		<defs>
			<path id="SVGID_3_" d="M60.003,0C26.864,0,0,26.86,0,60.001v379.998C0,473.137,26.857,500,60.003,500h1356.994
				c33.139,0,60.003-26.86,60.003-60.001V60.001C1477,26.863,1450.143,0,1416.997,0H60.003z"/>
		</defs>
		<clipPath id="SVGID_4_">
			<use xlink:href="#SVGID_3_"  overflow="visible"/>
		</clipPath>
		<rect x="-5" y="-5" clip-path="url(#SVGID_4_)" width="1487" height="510"/>
	</g>
</g>
<g>
	<defs>
		<rect id="SVGID_5_" x="-462" y="-851" width="2400" height="1800"/>
	</defs>
	<clipPath id="SVGID_6_">
		<use xlink:href="#SVGID_5_"  overflow="visible"/>
	</clipPath>
	<g clip-path="url(#SVGID_6_)">
		<defs>
			<path id="SVGID_7_" d="M323.341,258.555c-0.322-35.766,29.285-53.166,30.639-53.976c-16.768-24.446-42.757-27.787-51.889-28.053
				c-21.828-2.297-43,13.061-54.12,13.061c-11.341,0-28.464-12.839-46.918-12.462c-23.748,0.366-45.963,14.115-58.148,35.466
				c-25.146,43.533-6.392,107.507,17.7,142.695c12.051,17.244,26.133,36.476,44.565,35.799
				c18.032-0.732,24.768-11.497,46.529-11.497c21.561,0,27.886,11.497,46.685,11.053c19.353-0.288,31.538-17.3,43.167-34.7
				c13.927-19.729,19.52-39.205,19.741-40.204C360.849,315.593,323.718,301.422,323.341,258.555"/>
		</defs>
		<clipPath id="SVGID_8_">
			<use xlink:href="#SVGID_7_"  overflow="visible"/>
		</clipPath>
		<rect x="125.963" y="171.292" clip-path="url(#SVGID_8_)" fill="#FFFFFF" width="240.329" height="224.811"/>
	</g>
</g>
<g>
	<defs>
		<rect id="SVGID_9_" x="-462" y="-851" width="2400" height="1800"/>
	</defs>
	<clipPath id="SVGID_10_">
		<use xlink:href="#SVGID_9_"  overflow="visible"/>
	</clipPath>
	<g clip-path="url(#SVGID_10_)">
		<defs>
			<path id="SVGID_11_" d="M287.831,153.377c9.699-12.129,16.335-28.63,14.493-45.375c-14.038,0.621-31.593,9.709-41.702,21.572
				c-8.944,10.453-16.934,27.587-14.87,43.7C261.52,174.451,277.71,165.318,287.831,153.377"/>
		</defs>
		<clipPath id="SVGID_12_">
			<use xlink:href="#SVGID_11_"  overflow="visible"/>
		</clipPath>
		<rect x="240.423" y="103.002" clip-path="url(#SVGID_12_)" fill="#FFFFFF" width="67.208" height="75.374"/>
	</g>
</g>
<g>
	<defs>
		<rect id="SVGID_13_" x="-462" y="-851" width="2400" height="1800"/>
	</defs>
	<clipPath id="SVGID_14_">
		<use xlink:href="#SVGID_13_"  overflow="visible"/>
	</clipPath>
	<g clip-path="url(#SVGID_14_)">
		<defs>
			<path id="SVGID_15_" d="M541.362,242.033l-12.484-38.551c-1.32-3.95-3.806-13.228-7.446-27.831h-0.444
				c-1.464,6.281-3.806,15.558-7.013,27.831l-12.273,38.551H541.362z M584.529,303.61h-25.201l-13.805-43.378H497.54l-13.149,43.378
				h-24.536l47.55-147.678h29.362L584.529,303.61z"/>
		</defs>
		<clipPath id="SVGID_16_">
			<use xlink:href="#SVGID_15_"  overflow="visible"/>
		</clipPath>
		<rect x="454.855" y="150.932" clip-path="url(#SVGID_16_)" fill="#FFFFFF" width="134.674" height="157.678"/>
	</g>
</g>
<g>
	<defs>
		<rect id="SVGID_17_" x="-462" y="-851" width="2400" height="1800"/>
	</defs>
	<clipPath id="SVGID_18_">
		<use xlink:href="#SVGID_17_"  overflow="visible"/>
	</clipPath>
	<g clip-path="url(#SVGID_18_)">
		<defs>
			<path id="SVGID_19_" d="M682.47,249.923c0-10.365-2.33-18.909-7.013-25.634c-5.116-7.002-11.984-10.52-20.596-10.52
				c-5.837,0-11.142,1.953-15.88,5.815c-4.75,3.873-7.856,8.944-9.31,15.236c-0.732,2.918-1.099,5.304-1.099,7.191v17.777
				c0,7.724,2.375,14.26,7.124,19.608c4.75,5.327,10.919,8.001,18.51,8.001c8.911,0,15.846-3.451,20.807-10.298
				C679.985,270.23,682.47,261.176,682.47,249.923z M706.573,249.058c0,18.11-4.916,32.425-14.759,42.935
				c-8.811,9.354-19.764,14.026-32.825,14.026c-14.104,0-24.247-5.027-30.406-15.114v55.873h-23.658V232.124
				c0-11.375-0.3-23.038-0.877-35h20.807l1.32,16.89h0.444c7.89-12.729,19.863-19.087,35.932-19.087
				c12.562,0,23.048,4.96,31.438,14.892C702.367,219.773,706.573,232.845,706.573,249.058z"/>
		</defs>
		<clipPath id="SVGID_20_">
			<use xlink:href="#SVGID_19_"  overflow="visible"/>
		</clipPath>
		<rect x="599.048" y="189.927" clip-path="url(#SVGID_20_)" fill="#FFFFFF" width="112.524" height="161.851"/>
	</g>
</g>
<g>
	<defs>
		<rect id="SVGID_21_" x="-462" y="-851" width="2400" height="1800"/>
	</defs>
	<clipPath id="SVGID_22_">
		<use xlink:href="#SVGID_21_"  overflow="visible"/>
	</clipPath>
	<g clip-path="url(#SVGID_22_)">
		<defs>
			<path id="SVGID_23_" d="M804.936,249.923c0-10.365-2.341-18.909-7.023-25.634c-5.105-7.002-11.963-10.52-20.574-10.52
				c-5.837,0-11.142,1.953-15.901,5.815c-4.739,3.873-7.846,8.944-9.3,15.236c-0.721,2.918-1.109,5.304-1.109,7.191v17.777
				c0,7.724,2.386,14.26,7.113,19.608c4.749,5.315,10.919,8.001,18.531,8.001c8.922,0,15.857-3.451,20.807-10.298
				C802.45,270.23,804.936,261.176,804.936,249.923z M829.05,249.058c0,18.11-4.916,32.425-14.759,42.935
				c-8.822,9.354-19.764,14.026-32.836,14.026c-14.094,0-24.236-5.027-30.406-15.114v55.873h-23.658V232.124
				c0-11.375-0.299-23.038-0.876-35h20.806l1.321,16.89h0.443c7.879-12.729,19.853-19.087,35.932-19.087
				c12.551,0,23.049,4.96,31.449,14.892C824.833,219.773,829.05,232.845,829.05,249.058z"/>
		</defs>
		<clipPath id="SVGID_24_">
			<use xlink:href="#SVGID_23_"  overflow="visible"/>
		</clipPath>
		<rect x="721.514" y="189.927" clip-path="url(#SVGID_24_)" fill="#FFFFFF" width="112.536" height="161.851"/>
	</g>
</g>
<g>
	<defs>
		<rect id="SVGID_25_" x="-462" y="-851" width="2400" height="1800"/>
	</defs>
	<clipPath id="SVGID_26_">
		<use xlink:href="#SVGID_25_"  overflow="visible"/>
	</clipPath>
	<g clip-path="url(#SVGID_26_)">
		<defs>
			<path id="SVGID_27_" d="M965.985,262.196c0,12.562-4.383,22.782-13.128,30.672c-9.609,8.611-23.025,12.928-40.226,12.928
				c-15.891,0-28.63-3.062-38.24-9.199l5.471-19.719c10.376,6.137,21.772,9.21,34.179,9.21c8.922,0,15.857-2.02,20.807-6.025
				c4.972-4.028,7.468-9.388,7.468-16.091c0-6.003-2.063-11.041-6.147-15.136c-4.095-4.073-10.863-7.89-20.362-11.375
				c-25.856-9.643-38.795-23.758-38.795-42.301c0-12.118,4.571-22.039,13.683-29.795c9.121-7.746,21.217-11.619,36.265-11.619
				c13.438,0,24.635,2.342,33.523,7.013l-5.937,19.287c-8.367-4.527-17.811-6.792-28.375-6.792c-8.345,0-14.903,2.053-19.575,6.137
				c-3.939,3.651-5.948,8.101-5.948,13.383c0,5.826,2.275,10.664,6.813,14.448c3.929,3.507,11.098,7.313,21.462,11.396
				c12.717,5.127,22.05,11.097,28.042,17.955C962.989,243.432,965.985,251.987,965.985,262.196"/>
		</defs>
		<clipPath id="SVGID_28_">
			<use xlink:href="#SVGID_27_"  overflow="visible"/>
		</clipPath>
		<rect x="869.392" y="148.746" clip-path="url(#SVGID_28_)" fill="#FFFFFF" width="101.594" height="162.05"/>
	</g>
</g>
<g>
	<defs>
		<rect id="SVGID_29_" x="-462" y="-851" width="2400" height="1800"/>
	</defs>
	<clipPath id="SVGID_30_">
		<use xlink:href="#SVGID_29_"  overflow="visible"/>
	</clipPath>
	<g clip-path="url(#SVGID_30_)">
		<defs>
			<path id="SVGID_31_" d="M1044.408,214.879h-26.078v51.701c0,13.149,4.594,19.708,13.804,19.708c4.229,0,7.735-0.355,10.509-1.099
				l0.655,17.966c-4.661,1.742-10.797,2.619-18.388,2.619c-9.354,0-16.646-2.863-21.927-8.556
				c-5.261-5.704-7.891-15.259-7.891-28.708v-53.676h-15.524V197.08h15.524v-19.497l23.237-7.013v26.51h26.078V214.879"/>
		</defs>
		<clipPath id="SVGID_32_">
			<use xlink:href="#SVGID_31_"  overflow="visible"/>
		</clipPath>
		<rect x="974.568" y="165.569" clip-path="url(#SVGID_32_)" fill="#FFFFFF" width="74.84" height="145.205"/>
	</g>
</g>
<g>
	<defs>
		<rect id="SVGID_33_" x="-462" y="-851" width="2400" height="1800"/>
	</defs>
	<clipPath id="SVGID_34_">
		<use xlink:href="#SVGID_33_"  overflow="visible"/>
	</clipPath>
	<g clip-path="url(#SVGID_34_)">
		<defs>
			<path id="SVGID_35_" d="M1137.311,250.034c0-9.754-2.107-18.121-6.336-25.124c-4.961-8.456-12.073-12.672-21.262-12.672
				c-9.466,0-16.756,4.217-21.695,12.672c-4.25,7.002-6.347,15.514-6.347,25.568c0,9.765,2.097,18.154,6.347,25.123
				c5.116,8.467,12.252,12.695,21.507,12.695c9.032,0,16.124-4.328,21.262-12.896
				C1135.125,268.233,1137.311,259.811,1137.311,250.034z M1161.835,249.491c0,16.368-4.672,29.806-14.026,40.315
				c-9.776,10.809-22.781,16.213-38.994,16.213c-15.647,0-28.086-5.183-37.363-15.547c-9.277-10.365-13.916-23.437-13.916-39.206
				c0-16.501,4.805-30.017,14.348-40.525c9.566-10.509,22.461-15.78,38.673-15.78c15.637,0,28.175,5.205,37.686,15.558
				C1157.319,220.583,1161.835,233.555,1161.835,249.491z"/>
		</defs>
		<clipPath id="SVGID_36_">
			<use xlink:href="#SVGID_35_"  overflow="visible"/>
		</clipPath>
		<rect x="1052.535" y="189.96" clip-path="url(#SVGID_36_)" fill="#FFFFFF" width="114.3" height="121.059"/>
	</g>
</g>
<g>
	<defs>
		<rect id="SVGID_37_" x="-462" y="-851" width="2400" height="1800"/>
	</defs>
	<clipPath id="SVGID_38_">
		<use xlink:href="#SVGID_37_"  overflow="visible"/>
	</clipPath>
	<g clip-path="url(#SVGID_38_)">
		<defs>
			<path id="SVGID_39_" d="M1238.77,217.931c-2.341-0.433-4.849-0.644-7.457-0.644c-8.322,0-14.759,3.118-19.286,9.421
				c-3.939,5.548-5.903,12.562-5.903,21.029v55.873h-23.659v-72.951c0-12.262-0.233-23.459-0.688-33.524h20.606l0.866,20.374h0.655
				c2.507-7.002,6.436-12.651,11.829-16.868c5.281-3.817,10.964-5.715,17.1-5.715c2.187,0,4.162,0.167,5.915,0.433L1238.77,217.931"
				/>
		</defs>
		<clipPath id="SVGID_40_">
			<use xlink:href="#SVGID_39_"  overflow="visible"/>
		</clipPath>
		<rect x="1176.776" y="189.927" clip-path="url(#SVGID_40_)" fill="#FFFFFF" width="66.993" height="118.684"/>
	</g>
</g>
<g>
	<defs>
		<rect id="SVGID_41_" x="-462" y="-851" width="2400" height="1800"/>
	</defs>
	<clipPath id="SVGID_42_">
		<use xlink:href="#SVGID_41_"  overflow="visible"/>
	</clipPath>
	<g clip-path="url(#SVGID_42_)">
		<defs>
			<path id="SVGID_43_" d="M1322.02,239.192c0.166-7.024-1.388-13.061-4.595-18.188c-4.095-6.592-10.397-9.876-18.843-9.876
				c-7.745,0-14.037,3.207-18.831,9.643c-3.938,5.116-6.281,11.274-7.002,18.399L1322.02,239.192z M1344.579,245.329
				c0,4.239-0.277,7.812-0.865,10.73h-70.965c0.255,10.521,3.706,18.576,10.287,24.125c5.98,4.949,13.727,7.435,23.214,7.435
				c10.509,0,20.097-1.664,28.719-5.038l3.707,16.424c-10.076,4.384-21.982,6.58-35.699,6.58c-16.512,0-29.474-4.86-38.905-14.559
				c-9.399-9.71-14.126-22.771-14.126-39.105c0-16.046,4.372-29.418,13.16-40.083c9.188-11.385,21.605-17.078,37.23-17.078
				c15.347,0,26.965,5.693,34.844,17.078C1341.439,220.86,1344.579,232.046,1344.579,245.329z"/>
		</defs>
		<clipPath id="SVGID_44_">
			<use xlink:href="#SVGID_43_"  overflow="visible"/>
		</clipPath>
		<rect x="1244.945" y="189.76" clip-path="url(#SVGID_44_)" fill="#FFFFFF" width="104.634" height="120.825"/>
	</g>
</g>
</svg>
