<?xml version="1.0" encoding="utf-8"?>
<!-- Generator: Adobe Illustrator 16.0.0, SVG Export Plug-In . SVG Version: 6.00 Build 0)  -->
<!DOCTYPE svg PUBLIC "-//W3C//DTD SVG 1.1//EN" "http://www.w3.org/Graphics/SVG/1.1/DTD/svg11.dtd">
<svg version="1.1" id="Capa_2" xmlns="http://www.w3.org/2000/svg" xmlns:xlink="http://www.w3.org/1999/xlink" x="0px" y="0px"
	 width="200px" height="200px" viewBox="0 0 200 200" enable-background="new 0 0 200 200" xml:space="preserve">
<g>
	<path fill="#FFFFFF" d="M58.773,91.485c-14.172,0-25.703-11.529-25.703-25.703S44.6,40.08,58.773,40.08
		c14.173,0,25.703,11.532,25.703,25.705C84.476,79.956,72.947,91.485,58.773,91.485z M58.773,41.458
		c-13.414,0-24.328,10.914-24.328,24.328s10.914,24.328,24.328,24.328s24.328-10.915,24.328-24.329
		C83.101,52.37,72.188,41.458,58.773,41.458z"/>
</g>
<g>
	<path fill="#FFFFFF" d="M58.773,83.233c-9.623,0-17.451-7.827-17.451-17.451s7.827-17.451,17.451-17.451s17.451,7.83,17.451,17.452
		C76.224,75.406,68.397,83.233,58.773,83.233z M58.773,49.71c-8.863,0-16.076,7.211-16.076,16.075
		c0,8.865,7.211,16.075,16.076,16.075c8.864,0,16.075-7.214,16.075-16.076C74.849,56.921,67.637,49.71,58.773,49.71z"/>
</g>
<g>
	<path fill="#FFFFFF" d="M58.773,76.186c-5.735,0-10.401-4.667-10.401-10.401s4.667-10.4,10.401-10.4s10.4,4.667,10.4,10.4
		S64.508,76.186,58.773,76.186z M58.773,56.757c-4.978,0-9.025,4.049-9.025,9.025c0,4.976,4.049,9.025,9.025,9.025
		c4.976,0,9.025-4.049,9.025-9.025C67.798,60.806,63.751,56.757,58.773,56.757z"/>
</g>
<g>
	<path fill="#BF0000" d="M45.508,113.75l11.977-45.302c-16.934,13.467-28.184,40.12-28.94,41.748
		c-7.564-2.407-12.378-3.897-12.378-3.897l8.138,43.898l14.212-13.294l-6.075-2.865l-3.782-3.095l-1.146-3.496l0.688-3.668
		l4.126-3.839l6.676-2.967l8.037-0.387l4.513,0.215l5.501,0.902l4.155-2.121L45.508,113.75z"/>
</g>
<g>
	<path fill="#FFFFFF" d="M122.299,48.993c-2.27-8.622-5.959-12.836-8.366-19.369s-1.261-14.212-7.794-13.983
		s-6.647,13.066-5.388,21.776c1.26,8.71,1.949,21.432,1.949,30.946c0,9.513-3.668,15.015-4.126,25.101s-4.47,18.912-9.857,24.873
		c-5.388,5.961-16.505,6.188-27.164,1.261s-29.341-4.241-33.009,3.896s4.7,13.066,18.454,15.358
		c13.753,2.293,19.829,8.711,30.258,14.441c10.43,5.731,12.954,12.722,27.28,17.65c0,0,6.761,2.408,13.981,4.586
		c7.221,2.177,18.108,15.816,22.694,19.369c4.585,3.553,14.097,1.489,30.831-11.69c16.734-13.181,15.131-17.882,8.482-30.145
		s-18.913-42.98-21.09-49.972c-2.178-6.991,0.473-16.119-8.854-21.62c0,0-0.172-8.038-2.407-10.789
		c-2.234-2.751-6.532-3.152-7.104-4.356c-0.572-1.203-0.78-6.219-2.15-8.28c-5.53-8.31-14.384-0.861-14.384-0.861
		S124.02,55.526,122.299,48.993z"/>
</g>
<g>
	<path fill="#BF0000" d="M100.179,27.102c0.344-5.387,0.861-10.659,6.419-11.232c5.558-0.574,5.214,4.813,6.246,8.826
		c0.795,3.094,2.578,7.954,4.194,11.568l14.315-33.346l-49.112,8.882l9.112,9.627c-15.204,14.06-17.364,17.536-31.977,43.038
		c16.301-15.958,33.729-24.259,41.479-27.43C100.461,34.556,99.96,30.531,100.179,27.102z"/>
</g>
<g>
	<path fill="#8F0000" d="M101.269,20.225c1.375-3.095,2.062-4.355,5.329-4.355s4.813,2.407,5.674,6.819
		c0.424,2.177,1.114,4.814,1.8,7.057c2.095-1.946,3.414-4.717,3.414-7.803c0-5.887-4.773-10.659-10.659-10.659
		s-10.659,4.772-10.659,10.659c0,3.398,1.596,6.419,4.072,8.371C100.235,27.067,100.387,22.205,101.269,20.225z"/>
</g>
<g>
	<path fill="#8F0000" d="M27.742,126.244c-0.688,10.373,13.64,10.029,11.041,11.015c-1.354,0.515-2.794,0.904-4.336,0.904
		c-5.982,0-10.831-4.849-10.831-10.831s4.849-10.831,10.831-10.831c1.292,0,2.539,0.215,3.685,0.644
		C41.324,118.336,28.372,116.74,27.742,126.244z"/>
</g>
<g>
	<path fill="#CCCCCC" d="M128.66,84.18c0.745,3.324,2.407-19.685-0.258-29.055l-3.868,2.063
		C124.534,57.188,128.381,82.932,128.66,84.18z"/>
</g>
<g>
	<path fill="#CCCCCC" d="M144.535,86.244c0.426,1.891,2.091-12.548,0.573-17.881l-3.438-1.089
		C141.67,67.273,144.375,85.534,144.535,86.244z"/>
</g>
<g>
	<path d="M146.187,197.103c-2.419,0-4.154-0.695-5.397-1.66c-1.505-1.166-3.621-3.341-6.074-5.858
		c-5.192-5.331-11.655-11.965-16.396-13.396c-7.154-2.156-13.947-4.571-14.015-4.597c-8.747-3.009-13.231-6.843-17.566-10.552
		c-2.815-2.408-5.729-4.898-9.813-7.143c-2.918-1.604-5.493-3.256-7.982-4.855c-6.306-4.051-12.264-7.878-22.057-9.51
		c-10.379-1.73-16.777-4.731-19.018-8.922c-1.183-2.211-1.165-4.7,0.051-7.396c1.088-2.414,3.481-4.368,6.923-5.651
		c7.556-2.814,19.165-2.21,27.002,1.412c10.703,4.949,21.299,4.509,26.364-1.098c5.734-6.345,9.262-15.254,9.68-24.441
		c0.226-4.939,1.206-8.786,2.155-12.508c1.013-3.973,1.971-7.726,1.971-12.561c0-8.677-0.601-21.581-1.941-30.846
		c-1.072-7.415-1.059-16.728,2.198-20.625c1.031-1.232,2.323-1.884,3.847-1.938c5.195-0.201,6.097,4.173,7.021,8.785
		c0.375,1.871,0.764,3.805,1.441,5.647c1.021,2.772,2.187,5.141,3.418,7.648c1.659,3.373,3.372,6.861,4.957,11.747
		c1.606,4.958,2.673,12.742,3.705,20.27c0.733,5.353,1.426,10.407,2.24,13.76l0.289,1.313l-1.344,0.296l-0.286-1.298
		c-0.827-3.408-1.524-8.497-2.262-13.885c-1.023-7.469-2.083-15.191-3.653-20.032c-1.553-4.791-3.245-8.235-4.884-11.564
		c-1.246-2.541-2.427-4.939-3.473-7.779c-0.717-1.945-1.115-3.931-1.499-5.853c-1.004-4.996-1.773-7.792-5.626-7.68
		c-1.131,0.04-2.06,0.513-2.838,1.445c-2.969,3.554-2.875,12.751-1.893,19.546c1.352,9.334,1.956,22.318,1.956,31.044
		c0,5.008-0.978,8.843-2.014,12.901c-0.931,3.655-1.895,7.432-2.114,12.231c-0.432,9.501-4.089,18.723-10.033,25.3
		c-5.471,6.055-16.709,6.627-27.963,1.425c-7.419-3.43-18.817-4.032-25.945-1.372c-3.088,1.152-5.215,2.856-6.147,4.927
		c-1.047,2.32-1.077,4.344-0.092,6.184c2.001,3.74,8.235,6.581,18.03,8.215c10.073,1.679,16.145,5.579,22.576,9.711
		c2.47,1.585,5.024,3.226,7.901,4.806c4.208,2.313,7.176,4.85,10.044,7.305c4.433,3.792,8.621,7.373,17.128,10.3
		c0.074,0.026,6.835,2.43,13.955,4.576c5.082,1.533,11.683,8.309,16.986,13.753c2.417,2.482,4.504,4.626,5.931,5.73
		c3.481,2.703,11.515,2.863,29.983-11.686c16.22-12.774,15.009-16.91,8.304-29.276c-6.688-12.337-18.931-42.992-21.141-50.095
		c-0.653-2.094-0.888-4.394-1.115-6.619c-0.545-5.351-1.112-10.886-7.433-14.615l0.698-1.184c6.923,4.083,7.549,10.233,8.104,15.66
		c0.229,2.257,0.447,4.386,1.059,6.35c2.202,7.067,14.382,37.571,21.039,49.846c6.828,12.597,8.326,17.633-8.661,31.014
		C159.458,193.996,151.298,197.103,146.187,197.103z"/>
</g>
<g>
	<path d="M143.244,86.987l-0.153-1.432c-0.72-5.892-2.912-23.82-4.773-27.173c-0.763-1.373-2.168-3.114-4.537-3.61
		c-2.648-0.555-5.786,0.54-9.346,3.25l-0.831-1.095c3.891-2.964,7.41-4.142,10.459-3.502c2.276,0.477,4.163,1.96,5.458,4.288
		c1.784,3.216,3.673,17.334,4.935,27.674l0.159,1.46L143.244,86.987z"/>
</g>
<g>
	<g>
		<path d="M35.653,135.182c-3.797-1.881-3.994-7.348,0.163-8.967c2.613-1.016,5.833-0.632,8.563-0.409
			c3.524,0.288,3.402,2.351,3.07,5.056c-0.343,2.791-0.197,5.53,0.254,8.298c0.211-0.209,0.423-0.423,0.634-0.634
			c-5.761-1.225-5.151-9.163-1.195-12.065c0.53-0.39,0.017-1.285-0.521-0.892c-4.632,3.402-5.235,12.534,1.441,13.954
			c0.41,0.086,0.699-0.242,0.634-0.634c-0.441-2.703-0.516-5.31-0.218-8.027c0.121-1.101,0.508-2.455,0.198-3.557
			c-0.885-3.127-5.739-2.641-8.17-2.723c-2.566-0.087-7.646,0.37-8.456,3.555c-0.831,3.274-0.042,6.389,3.081,7.937
			C35.727,136.366,36.249,135.477,35.653,135.182L35.653,135.182z"/>
	</g>
</g>
<g>
	<g>
		<path d="M52.28,127.595c-1.517,3.694-1.326,7.806-0.882,11.696c0.074,0.653,1.107,0.66,1.032,0
			c-0.433-3.809-0.639-7.807,0.847-11.422C53.528,127.254,52.529,126.989,52.28,127.595L52.28,127.595z"/>
	</g>
</g>
<g>
	<g>
		<path d="M54.455,128.382c-1.28,3.914-1.349,7.717-0.393,11.728c0.154,0.647,1.148,0.372,0.995-0.274
			c-0.918-3.85-0.833-7.434,0.394-11.179C55.658,128.022,54.661,127.754,54.455,128.382L54.455,128.382z"/>
	</g>
</g>
<g>
	<g>
		<path d="M56.97,129.643c-1.281,3.911-1.349,7.715-0.394,11.725c0.154,0.647,1.148,0.374,0.996-0.273
			c-0.919-3.85-0.833-7.433,0.394-11.179C58.172,129.281,57.176,129.011,56.97,129.643L56.97,129.643z"/>
	</g>
</g>
<g>
	<g>
		<path d="M111.777,19.974c-1.164-0.917-3.064-0.864-4.17,0.23c-1.563,1.544-1.529,3.693-1.308,5.749
			c0.161,1.512,0.177,4.189,1.254,5.41c1.608,1.816,4.271,0.185,6.265,0.267c0.664,0.027,0.661-1.004,0-1.032
			c-1.035-0.043-1.932,0.146-2.935,0.39c-2.691,0.654-3.048-1.454-3.311-3.428c-0.15-1.139-0.336-2.256-0.365-3.41
			c-0.042-1.73,1.567-5.243,3.838-3.446C111.562,21.112,112.298,20.387,111.777,19.974L111.777,19.974z"/>
	</g>
</g>
<g>
	<g>
		<path d="M114.705,32.272c-1.692,0.758-3.5,1.153-5.357,1.076c-0.665-0.028-0.663,1.004,0,1.031
			c2.045,0.085,4.016-0.383,5.876-1.217C115.83,32.892,115.306,32.003,114.705,32.272L114.705,32.272z"/>
	</g>
</g>
<g>
	<g>
		<path d="M111.296,37.245c1.803-0.05,3.802-0.681,5.303-1.675c0.552-0.364,0.036-1.258-0.521-0.89
			c-1.349,0.893-3.159,1.489-4.783,1.534C110.633,36.231,110.63,37.263,111.296,37.245L111.296,37.245z"/>
	</g>
</g>
<g>
	<g>
		<path d="M109.564,31.487c0.722-1.685,2.857-1.718,4.425-1.521c0.659,0.083,0.651-0.949,0-1.031
			c-1.92-0.241-4.447,0.009-5.316,2.031C108.414,31.571,109.303,32.097,109.564,31.487L109.564,31.487z"/>
	</g>
</g>
<g>
	<path d="M150.604,88.373c-0.218-0.113-0.306,0.62-0.359-0.755h-0.014c0,0-0.002,0.048-0.009-0.071
		c-0.024-0.311-0.044-0.687-0.072-1.347c-0.003-0.116-0.367-10.849-2.548-14.667c-2.063-3.614-6.125-3.756-6.297-3.762l0.035-1.365
		c0.202,0.005,5.001,0.177,7.457,4.477c2.337,4.092,2.707,14.77,2.727,15.329c0.032,0.624,0.056,0.946,0.062,1.254
		c0.007,0.143,0.013,0.151,0.015,0.151h-0.015c-0.009,0-0.093,0.55-0.297,0.682L150.604,88.373z"/>
</g>
</svg>
