<?xml version="1.0" encoding="utf-8"?>
<!-- Generator: Adobe Illustrator 17.1.0, SVG Export Plug-In . SVG Version: 6.00 Build 0)  -->
<!DOCTYPE svg PUBLIC "-//W3C//DTD SVG 1.1//EN" "http://www.w3.org/Graphics/SVG/1.1/DTD/svg11.dtd">
<svg version="1.1" id="Layer_1" xmlns="http://www.w3.org/2000/svg" xmlns:xlink="http://www.w3.org/1999/xlink" x="0px" y="0px"
	 viewBox="0 0 80 68.3" enable-background="new 0 0 80 68.3" xml:space="preserve">
<g>
	<path fill="#EC1C24" d="M80,8.4C80,3.8,76.2,0,71.6,0h-0.2C66.8,0,63,3.8,63,8.4v33.4c0,1.1-0.9,2-2,2H19c-1.1,0-2-0.9-2-2V8.4
		C17,3.8,13.2,0,8.6,0H8.4C3.8,0,0,3.8,0,8.4v38.4c0,0.3,0,0.6,0.1,1l0,0c0,11.4,6.6,20.5,18.2,20.5h43.4c11.7,0,18.2-9.2,18.2-20.5
		l0,0c0-0.3,0.1-0.6,0.1-1V8.4z"/>
	<path fill="#EC1C24" d="M59.9,9.8H20.1c-0.9,0-1.6,0.7-1.6,1.6v27.7v1.6c0,1,0.8,1.8,1.8,1.8H22h36h1.6c1,0,1.8-0.8,1.8-1.8v-1.6
		V11.4C61.5,10.5,60.8,9.8,59.9,9.8z"/>
</g>
</svg>
