<?xml version="1.0" encoding="utf-8"?>
<!-- Generator: Adobe Illustrator 17.1.0, SVG Export Plug-In . SVG Version: 6.00 Build 0)  -->
<!DOCTYPE svg PUBLIC "-//W3C//DTD SVG 1.1//EN" "http://www.w3.org/Graphics/SVG/1.1/DTD/svg11.dtd">
<svg version="1.1" id="Layer_1" xmlns="http://www.w3.org/2000/svg" xmlns:xlink="http://www.w3.org/1999/xlink" x="0px" y="0px"
	 viewBox="0 0 124.6 68.3" enable-background="new 0 0 124.6 68.3" xml:space="preserve">
<g>
	<path fill="#ED1C24" d="M59.9,9.8H20.1c-0.9,0-1.6,0.7-1.6,1.6v27.7v1.6c0,1,0.8,1.8,1.8,1.8H22h36h1.6c1,0,1.8-0.8,1.8-1.8v-1.6
		V11.4C61.5,10.5,60.8,9.8,59.9,9.8z"/>
	<path fill="#ED1C24" d="M59.9,43.8H20c-0.2,0-0.5,0.1-0.7,0.2L19,43.7c-1.1,0-2-0.9-2-2V8.4C17,3.8,13.2,0,8.6,0H8.4
		C3.8,0,0,3.8,0,8.4v38.4c0,0.3,0,0.6,0.1,1l0,0c0,11.4,6.6,20.5,18.2,20.5h1.9h1.6H58h0.9h0.8c1,0,1.8-0.8,1.8-1.8v-1.6V45.4
		C61.5,44.5,60.8,43.8,59.9,43.8z"/>
	<path fill="#ED1C24" d="M64.9,42.6h1.6h36h1.6c1,0,1.8-0.8,1.8-1.8v-1.6V11.4c0-0.9-0.7-1.6-1.6-1.6H64.7c-0.9,0-1.6,0.7-1.6,1.6
		v27.7v1.6C63.1,41.8,63.9,42.6,64.9,42.6z"/>
	<path fill="#ED1C24" d="M124.6,8.4c0-4.6-3.8-8.4-8.4-8.4H116c-4.6,0-8.4,3.8-8.4,8.4v33.4c0,1.1-0.9,2-2,2l-0.3,0.2
		c-0.2-0.1-0.4-0.2-0.7-0.2H64.7c-0.9,0-1.6,0.7-1.6,1.6v19.4v1.6c0,1,0.8,1.8,1.8,1.8h0.8h0.9h36.2h1.6h1.9
		c11.7,0,18.2-9.2,18.2-20.5l0,0c0-0.3,0.1-0.6,0.1-1V8.4z"/>
</g>
</svg>
